<mxfile host="65bd71144e">
    <diagram id="LY7bZEZQsjwUIpl6pDTG" name="Page-1">
        <mxGraphModel dx="2320" dy="2226" grid="1" gridSize="10" guides="1" tooltips="1" connect="1" arrows="1" fold="1" page="1" pageScale="1" pageWidth="850" pageHeight="1100" math="0" shadow="0">
            <root>
                <mxCell id="0"/>
                <mxCell id="1" parent="0"/>
                <mxCell id="138" value="" style="rounded=0;whiteSpace=wrap;html=1;fontSize=14;fontStyle=1" vertex="1" parent="1">
                    <mxGeometry x="-80" y="-118.89999999999998" width="1280" height="1240" as="geometry"/>
                </mxCell>
                <mxCell id="2" value="CLA 4-bit Adder" style="rounded=0;whiteSpace=wrap;html=1;fillColor=#f5f5f5;strokeColor=#666666;fontSize=14;fontStyle=1;fontColor=#333333;" parent="1" vertex="1">
                    <mxGeometry x="400" y="40" width="160" height="160" as="geometry"/>
                </mxCell>
                <mxCell id="18" value="" style="verticalLabelPosition=bottom;shadow=0;dashed=0;align=center;html=1;verticalAlign=top;shape=mxgraph.electrical.logic_gates.logic_gate;operation=and;fillColor=#f5f5f5;strokeColor=#666666;fontSize=14;fontStyle=1;fontColor=#333333;" parent="1" vertex="1">
                    <mxGeometry x="413.34000000000003" y="280" width="133.33" height="80" as="geometry"/>
                </mxCell>
                <mxCell id="19" value="" style="verticalLabelPosition=bottom;shadow=0;dashed=0;align=center;html=1;verticalAlign=top;shape=mxgraph.electrical.logic_gates.logic_gate;operation=or;fillColor=#f5f5f5;strokeColor=#666666;fontSize=14;fontStyle=1;fontColor=#333333;" parent="1" vertex="1">
                    <mxGeometry x="413.34000000000003" y="400" width="133.33" height="80" as="geometry"/>
                </mxCell>
                <mxCell id="20" value="" style="verticalLabelPosition=bottom;shadow=0;dashed=0;align=center;html=1;verticalAlign=top;shape=mxgraph.electrical.logic_gates.logic_gate;operation=xor;fillColor=#f5f5f5;strokeColor=#666666;fontSize=14;fontStyle=1;fontColor=#333333;" parent="1" vertex="1">
                    <mxGeometry x="413.34000000000003" y="520" width="133.33" height="80" as="geometry"/>
                </mxCell>
                <mxCell id="21" value="" style="verticalLabelPosition=bottom;shadow=0;dashed=0;align=center;html=1;verticalAlign=top;shape=mxgraph.electrical.logic_gates.inverter_2;fillColor=#f5f5f5;strokeColor=#666666;fontSize=14;fontStyle=1;fontColor=#333333;" parent="1" vertex="1">
                    <mxGeometry x="413.34000000000003" y="640" width="133.33" height="80" as="geometry"/>
                </mxCell>
                <mxCell id="22" value="" style="endArrow=none;html=1;entryX=0;entryY=0.25;entryDx=0;entryDy=0;entryPerimeter=0;rounded=0;curved=0;exitX=0;exitY=0.25;exitDx=0;exitDy=0;exitPerimeter=0;fillColor=#dae8fc;strokeColor=#6c8ebf;fontSize=14;fontStyle=1" parent="1" source="19" target="18" edge="1">
                    <mxGeometry width="50" height="50" relative="1" as="geometry">
                        <mxPoint x="410" y="420" as="sourcePoint"/>
                        <mxPoint x="373.34000000000003" y="300" as="targetPoint"/>
                        <Array as="points">
                            <mxPoint x="320" y="420"/>
                            <mxPoint x="320" y="300"/>
                        </Array>
                    </mxGeometry>
                </mxCell>
                <mxCell id="23" value="" style="endArrow=none;html=1;exitX=0;exitY=0.25;exitDx=0;exitDy=0;exitPerimeter=0;rounded=0;curved=0;fillColor=#dae8fc;strokeColor=#6c8ebf;fontSize=14;fontStyle=1" parent="1" source="20" edge="1">
                    <mxGeometry width="50" height="50" relative="1" as="geometry">
                        <mxPoint x="373.34000000000003" y="540" as="sourcePoint"/>
                        <mxPoint x="320" y="420" as="targetPoint"/>
                        <Array as="points">
                            <mxPoint x="320" y="540"/>
                        </Array>
                    </mxGeometry>
                </mxCell>
                <mxCell id="24" value="" style="endArrow=none;html=1;exitX=0;exitY=0.5;exitDx=0;exitDy=0;exitPerimeter=0;rounded=0;curved=0;fillColor=#dae8fc;strokeColor=#6c8ebf;fontSize=14;fontStyle=1" parent="1" source="21" edge="1">
                    <mxGeometry width="50" height="50" relative="1" as="geometry">
                        <mxPoint x="373.34000000000003" y="680" as="sourcePoint"/>
                        <mxPoint x="320.34000000000003" y="540" as="targetPoint"/>
                        <Array as="points">
                            <mxPoint x="320" y="680"/>
                        </Array>
                    </mxGeometry>
                </mxCell>
                <mxCell id="25" value="" style="endArrow=none;html=1;entryX=0;entryY=0.25;entryDx=0;entryDy=0;rounded=0;curved=0;fillColor=#dae8fc;strokeColor=#6c8ebf;fontSize=14;fontStyle=1" parent="1" edge="1">
                    <mxGeometry width="50" height="50" relative="1" as="geometry">
                        <mxPoint x="320" y="300" as="sourcePoint"/>
                        <mxPoint x="400" y="60" as="targetPoint"/>
                        <Array as="points">
                            <mxPoint x="320" y="60"/>
                        </Array>
                    </mxGeometry>
                </mxCell>
                <mxCell id="27" value="" style="endArrow=none;html=1;rounded=0;curved=0;exitX=0;exitY=0.75;exitDx=0;exitDy=0;exitPerimeter=0;entryX=0;entryY=0.75;entryDx=0;entryDy=0;entryPerimeter=0;fontSize=14;fontStyle=1" parent="1" source="19" target="18" edge="1">
                    <mxGeometry width="50" height="50" relative="1" as="geometry">
                        <mxPoint x="390" y="450" as="sourcePoint"/>
                        <mxPoint x="410" y="340" as="targetPoint"/>
                        <Array as="points">
                            <mxPoint x="360" y="460"/>
                            <mxPoint x="360" y="340"/>
                        </Array>
                    </mxGeometry>
                </mxCell>
                <mxCell id="30" value="AND4" style="text;html=1;align=center;verticalAlign=middle;whiteSpace=wrap;rounded=0;fontSize=14;fontStyle=1" parent="1" vertex="1">
                    <mxGeometry x="450" y="305" width="60" height="30" as="geometry"/>
                </mxCell>
                <mxCell id="31" value="OR4" style="text;html=1;align=center;verticalAlign=middle;whiteSpace=wrap;rounded=0;fontSize=14;fontStyle=1" parent="1" vertex="1">
                    <mxGeometry x="450" y="425" width="60" height="30" as="geometry"/>
                </mxCell>
                <mxCell id="32" value="XOR4" style="text;html=1;align=center;verticalAlign=middle;whiteSpace=wrap;rounded=0;fontSize=14;fontStyle=1" parent="1" vertex="1">
                    <mxGeometry x="450" y="545" width="60" height="30" as="geometry"/>
                </mxCell>
                <mxCell id="33" value="NOT4" style="text;html=1;align=center;verticalAlign=middle;whiteSpace=wrap;rounded=0;fontSize=14;fontStyle=1;" parent="1" vertex="1">
                    <mxGeometry x="440" y="665" width="60" height="30" as="geometry"/>
                </mxCell>
                <mxCell id="34" value="" style="endArrow=none;html=1;exitX=0;exitY=0.75;exitDx=0;exitDy=0;exitPerimeter=0;rounded=0;curved=0;fontSize=14;fontStyle=1" parent="1" source="35" edge="1">
                    <mxGeometry width="50" height="50" relative="1" as="geometry">
                        <mxPoint x="30" y="340" as="sourcePoint"/>
                        <mxPoint x="360" y="340" as="targetPoint"/>
                        <Array as="points">
                            <mxPoint x="120" y="140"/>
                            <mxPoint x="120" y="340"/>
                        </Array>
                    </mxGeometry>
                </mxCell>
                <mxCell id="35" value="" style="verticalLabelPosition=bottom;shadow=0;dashed=0;align=center;html=1;verticalAlign=top;shape=mxgraph.electrical.logic_gates.logic_gate;operation=xor;fillColor=#f5f5f5;strokeColor=#666666;fontSize=14;fontStyle=1;fontColor=#333333;" parent="1" vertex="1">
                    <mxGeometry x="150.00000000000006" y="80" width="133.33" height="80" as="geometry"/>
                </mxCell>
                <mxCell id="36" value="XOR4" style="text;html=1;align=center;verticalAlign=middle;whiteSpace=wrap;rounded=0;fontSize=14;fontStyle=1" parent="1" vertex="1">
                    <mxGeometry x="186.66000000000003" y="105" width="60" height="30" as="geometry"/>
                </mxCell>
                <mxCell id="38" value="" style="endArrow=none;html=1;entryX=1;entryY=0.5;entryDx=0;entryDy=0;entryPerimeter=0;exitX=0;exitY=0.5;exitDx=0;exitDy=0;rounded=0;curved=0;fontSize=14;fontStyle=1" parent="1" source="2" target="35" edge="1">
                    <mxGeometry width="50" height="50" relative="1" as="geometry">
                        <mxPoint x="200" y="290" as="sourcePoint"/>
                        <mxPoint x="250" y="240" as="targetPoint"/>
                        <Array as="points">
                            <mxPoint x="283" y="120"/>
                        </Array>
                    </mxGeometry>
                </mxCell>
                <mxCell id="42" value="" style="shape=trapezoid;perimeter=trapezoidPerimeter;whiteSpace=wrap;html=1;fixedSize=1;rotation=90;size=165;fillColor=#fff2cc;strokeColor=#d6b656;fontSize=14;fontStyle=1" parent="1" vertex="1">
                    <mxGeometry x="222.9" y="419.3" width="1077.81" height="163.59" as="geometry"/>
                </mxCell>
                <mxCell id="50" value="Cin" style="text;html=1;align=center;verticalAlign=middle;whiteSpace=wrap;rounded=0;fontSize=14;fontStyle=1" parent="1" vertex="1">
                    <mxGeometry x="350" y="150" width="60" height="30" as="geometry"/>
                </mxCell>
                <mxCell id="51" value="b" style="text;html=1;align=center;verticalAlign=middle;whiteSpace=wrap;rounded=0;fontSize=14;fontStyle=1" parent="1" vertex="1">
                    <mxGeometry x="350" y="90" width="60" height="30" as="geometry"/>
                </mxCell>
                <mxCell id="52" value="a" style="text;html=1;align=center;verticalAlign=middle;whiteSpace=wrap;rounded=0;fontSize=14;fontStyle=1" parent="1" vertex="1">
                    <mxGeometry x="350" y="30" width="60" height="30" as="geometry"/>
                </mxCell>
                <mxCell id="53" value="SHIFT RIGHT" style="rounded=0;whiteSpace=wrap;html=1;fillColor=#f5f5f5;strokeColor=#666666;fontSize=14;fontStyle=1;fontColor=#333333;" parent="1" vertex="1">
                    <mxGeometry x="420" y="760" width="120" height="80" as="geometry"/>
                </mxCell>
                <mxCell id="54" value="SHIFT LEFT" style="rounded=0;whiteSpace=wrap;html=1;fillColor=#f5f5f5;strokeColor=#666666;fontSize=14;fontStyle=1;fontColor=#333333;" parent="1" vertex="1">
                    <mxGeometry x="420" y="880" width="120" height="80" as="geometry"/>
                </mxCell>
                <mxCell id="59" value="" style="endArrow=none;html=1;entryX=0;entryY=0.75;entryDx=0;entryDy=0;entryPerimeter=0;rounded=0;curved=0;fontSize=14;fontStyle=1" parent="1" target="20" edge="1">
                    <mxGeometry width="50" height="50" relative="1" as="geometry">
                        <mxPoint x="360" y="460" as="sourcePoint"/>
                        <mxPoint x="430" y="490" as="targetPoint"/>
                        <Array as="points">
                            <mxPoint x="360" y="580"/>
                        </Array>
                    </mxGeometry>
                </mxCell>
                <mxCell id="61" value="" style="endArrow=none;html=1;exitX=1;exitY=0.25;exitDx=0;exitDy=0;entryX=0.109;entryY=1;entryDx=0;entryDy=0;entryPerimeter=0;fontSize=14;fontStyle=1" parent="1" source="2" target="42" edge="1">
                    <mxGeometry width="50" height="50" relative="1" as="geometry">
                        <mxPoint x="610" y="150" as="sourcePoint"/>
                        <mxPoint x="660" y="200" as="targetPoint"/>
                    </mxGeometry>
                </mxCell>
                <mxCell id="62" value="" style="endArrow=none;html=1;exitX=1;exitY=0.5;exitDx=0;exitDy=0;entryX=0.044;entryY=1.003;entryDx=0;entryDy=0;entryPerimeter=0;exitPerimeter=0;fontSize=14;fontStyle=1" parent="1" source="18" edge="1">
                    <mxGeometry width="50" height="50" relative="1" as="geometry">
                        <mxPoint x="560" y="319.65999999999997" as="sourcePoint"/>
                        <mxPoint x="680" y="319.65999999999997" as="targetPoint"/>
                    </mxGeometry>
                </mxCell>
                <mxCell id="63" value="" style="endArrow=none;html=1;exitX=1;exitY=0.5;exitDx=0;exitDy=0;entryX=0.044;entryY=1.003;entryDx=0;entryDy=0;entryPerimeter=0;exitPerimeter=0;fontSize=14;fontStyle=1" parent="1" edge="1">
                    <mxGeometry width="50" height="50" relative="1" as="geometry">
                        <mxPoint x="546.67" y="440" as="sourcePoint"/>
                        <mxPoint x="679.67" y="439.65999999999997" as="targetPoint"/>
                    </mxGeometry>
                </mxCell>
                <mxCell id="64" value="" style="endArrow=none;html=1;exitX=1;exitY=0.5;exitDx=0;exitDy=0;entryX=0.044;entryY=1.003;entryDx=0;entryDy=0;entryPerimeter=0;exitPerimeter=0;fontSize=14;fontStyle=1" parent="1" edge="1">
                    <mxGeometry width="50" height="50" relative="1" as="geometry">
                        <mxPoint x="546.67" y="560" as="sourcePoint"/>
                        <mxPoint x="679.67" y="559.66" as="targetPoint"/>
                    </mxGeometry>
                </mxCell>
                <mxCell id="65" value="" style="endArrow=none;html=1;exitX=1;exitY=0.5;exitDx=0;exitDy=0;entryX=0.044;entryY=1.003;entryDx=0;entryDy=0;entryPerimeter=0;exitPerimeter=0;fontSize=14;fontStyle=1" parent="1" edge="1">
                    <mxGeometry width="50" height="50" relative="1" as="geometry">
                        <mxPoint x="546.67" y="680" as="sourcePoint"/>
                        <mxPoint x="679.67" y="679.66" as="targetPoint"/>
                    </mxGeometry>
                </mxCell>
                <mxCell id="67" value="" style="endArrow=none;html=1;exitX=1;exitY=0.5;exitDx=0;exitDy=0;fontSize=14;fontStyle=1" parent="1" source="53" edge="1">
                    <mxGeometry width="50" height="50" relative="1" as="geometry">
                        <mxPoint x="570" y="820" as="sourcePoint"/>
                        <mxPoint x="680" y="800" as="targetPoint"/>
                    </mxGeometry>
                </mxCell>
                <mxCell id="68" value="" style="endArrow=none;html=1;exitX=1;exitY=0.5;exitDx=0;exitDy=0;fontSize=14;fontStyle=1" parent="1" edge="1">
                    <mxGeometry width="50" height="50" relative="1" as="geometry">
                        <mxPoint x="540" y="919.8" as="sourcePoint"/>
                        <mxPoint x="680" y="919.8" as="targetPoint"/>
                    </mxGeometry>
                </mxCell>
                <mxCell id="69" value="" style="endArrow=none;html=1;exitX=0;exitY=0.25;exitDx=0;exitDy=0;rounded=0;curved=0;fontSize=14;fontStyle=1" parent="1" source="53" edge="1">
                    <mxGeometry width="50" height="50" relative="1" as="geometry">
                        <mxPoint x="410" y="700" as="sourcePoint"/>
                        <mxPoint x="360" y="580" as="targetPoint"/>
                        <Array as="points">
                            <mxPoint x="360" y="780"/>
                        </Array>
                    </mxGeometry>
                </mxCell>
                <mxCell id="71" value="" style="endArrow=none;html=1;exitX=0;exitY=0.5;exitDx=0;exitDy=0;rounded=0;curved=0;fontSize=14;fontStyle=1" parent="1" source="54" edge="1">
                    <mxGeometry width="50" height="50" relative="1" as="geometry">
                        <mxPoint x="380" y="830" as="sourcePoint"/>
                        <mxPoint x="360" y="780" as="targetPoint"/>
                        <Array as="points">
                            <mxPoint x="360" y="920"/>
                        </Array>
                    </mxGeometry>
                </mxCell>
                <mxCell id="73" value="" style="endArrow=none;html=1;exitX=0;exitY=0.75;exitDx=0;exitDy=0;fillColor=#dae8fc;strokeColor=#6c8ebf;rounded=0;curved=0;fontSize=14;fontStyle=1" parent="1" source="53" edge="1">
                    <mxGeometry width="50" height="50" relative="1" as="geometry">
                        <mxPoint x="440" y="690" as="sourcePoint"/>
                        <mxPoint x="320" y="680" as="targetPoint"/>
                        <Array as="points">
                            <mxPoint x="320" y="820"/>
                        </Array>
                    </mxGeometry>
                </mxCell>
                <mxCell id="74" value="" style="endArrow=none;html=1;entryX=0;entryY=0.75;entryDx=0;entryDy=0;fillColor=#dae8fc;strokeColor=#6c8ebf;rounded=0;curved=0;fontSize=14;fontStyle=1" parent="1" target="54" edge="1">
                    <mxGeometry width="50" height="50" relative="1" as="geometry">
                        <mxPoint x="320" y="820" as="sourcePoint"/>
                        <mxPoint x="450" y="840" as="targetPoint"/>
                        <Array as="points">
                            <mxPoint x="320" y="940"/>
                        </Array>
                    </mxGeometry>
                </mxCell>
                <mxCell id="76" value="" style="endArrow=none;html=1;rounded=0;curved=0;fontSize=14;fontStyle=1" parent="1" edge="1">
                    <mxGeometry width="50" height="50" relative="1" as="geometry">
                        <mxPoint x="640" y="80" as="sourcePoint"/>
                        <mxPoint x="680" y="200" as="targetPoint"/>
                        <Array as="points">
                            <mxPoint x="640" y="200"/>
                        </Array>
                    </mxGeometry>
                </mxCell>
                <mxCell id="77" value="0" style="text;html=1;align=center;verticalAlign=middle;whiteSpace=wrap;rounded=0;fontSize=14;fontStyle=1" parent="1" vertex="1">
                    <mxGeometry x="660" y="70" width="60" height="30" as="geometry"/>
                </mxCell>
                <mxCell id="78" value="1" style="text;html=1;align=center;verticalAlign=middle;whiteSpace=wrap;rounded=0;fontSize=14;fontStyle=1" parent="1" vertex="1">
                    <mxGeometry x="660" y="190" width="60" height="30" as="geometry"/>
                </mxCell>
                <mxCell id="79" value="2" style="text;html=1;align=center;verticalAlign=middle;whiteSpace=wrap;rounded=0;fontSize=14;fontStyle=1" parent="1" vertex="1">
                    <mxGeometry x="660" y="305" width="60" height="30" as="geometry"/>
                </mxCell>
                <mxCell id="80" value="3" style="text;html=1;align=center;verticalAlign=middle;whiteSpace=wrap;rounded=0;fontSize=14;fontStyle=1" parent="1" vertex="1">
                    <mxGeometry x="660" y="425" width="60" height="30" as="geometry"/>
                </mxCell>
                <mxCell id="81" value="4" style="text;html=1;align=center;verticalAlign=middle;whiteSpace=wrap;rounded=0;fontSize=14;fontStyle=1" parent="1" vertex="1">
                    <mxGeometry x="660" y="545" width="60" height="30" as="geometry"/>
                </mxCell>
                <mxCell id="82" value="5" style="text;html=1;align=center;verticalAlign=middle;whiteSpace=wrap;rounded=0;fontSize=14;fontStyle=1" parent="1" vertex="1">
                    <mxGeometry x="660" y="665" width="60" height="30" as="geometry"/>
                </mxCell>
                <mxCell id="83" value="6" style="text;html=1;align=center;verticalAlign=middle;whiteSpace=wrap;rounded=0;fontSize=14;fontStyle=1" parent="1" vertex="1">
                    <mxGeometry x="660" y="785" width="60" height="30" as="geometry"/>
                </mxCell>
                <mxCell id="84" value="7" style="text;html=1;align=center;verticalAlign=middle;whiteSpace=wrap;rounded=0;fontSize=14;fontStyle=1" parent="1" vertex="1">
                    <mxGeometry x="660" y="905" width="60" height="30" as="geometry"/>
                </mxCell>
                <mxCell id="85" value="MUX 8 TO 1" style="text;html=1;align=center;verticalAlign=middle;whiteSpace=wrap;rounded=0;fontSize=14;fontStyle=1" parent="1" vertex="1">
                    <mxGeometry x="718.76" y="490" width="111.24" height="30" as="geometry"/>
                </mxCell>
                <mxCell id="90" value="" style="endArrow=none;html=1;entryX=1;entryY=0.25;entryDx=0;entryDy=0;fontSize=14;fontStyle=1;fillColor=#f8cecc;strokeColor=#b85450;" parent="1" edge="1">
                    <mxGeometry width="50" height="50" relative="1" as="geometry">
                        <mxPoint x="800" y="1080" as="sourcePoint"/>
                        <mxPoint x="799.9961660676886" y="920.003833932311" as="targetPoint"/>
                    </mxGeometry>
                </mxCell>
                <mxCell id="91" value="" style="endArrow=none;html=1;exitX=0.928;exitY=0.517;exitDx=0;exitDy=0;exitPerimeter=0;fontSize=14;fontStyle=1;fillColor=#f8cecc;strokeColor=#b85450;" parent="1" source="42" edge="1">
                    <mxGeometry width="50" height="50" relative="1" as="geometry">
                        <mxPoint x="720" y="980" as="sourcePoint"/>
                        <mxPoint x="760" y="1080" as="targetPoint"/>
                    </mxGeometry>
                </mxCell>
                <mxCell id="92" value="" style="endArrow=none;html=1;entryX=0.962;entryY=0.756;entryDx=0;entryDy=0;entryPerimeter=0;fontSize=14;fontStyle=1;fillColor=#f8cecc;strokeColor=#b85450;" parent="1" target="42" edge="1">
                    <mxGeometry width="50" height="50" relative="1" as="geometry">
                        <mxPoint x="720" y="1080" as="sourcePoint"/>
                        <mxPoint x="770" y="930" as="targetPoint"/>
                    </mxGeometry>
                </mxCell>
                <mxCell id="93" value="OP&lt;span style=&quot;background-color: transparent;&quot;&gt;[2]&lt;/span&gt;" style="text;html=1;align=center;verticalAlign=middle;whiteSpace=wrap;rounded=0;fontSize=14;fontStyle=1" parent="1" vertex="1">
                    <mxGeometry x="692.5" y="1080" width="60" height="30" as="geometry"/>
                </mxCell>
                <mxCell id="94" value="OP&lt;span style=&quot;background-color: transparent;&quot;&gt;[1]&lt;/span&gt;" style="text;html=1;align=center;verticalAlign=middle;whiteSpace=wrap;rounded=0;fontSize=14;fontStyle=1" parent="1" vertex="1">
                    <mxGeometry x="732.5" y="1080" width="60" height="30" as="geometry"/>
                </mxCell>
                <mxCell id="95" value="OP&lt;span style=&quot;background-color: transparent;&quot;&gt;[0]&lt;/span&gt;" style="text;html=1;align=center;verticalAlign=middle;whiteSpace=wrap;rounded=0;fontSize=14;fontStyle=1" parent="1" vertex="1">
                    <mxGeometry x="772.5" y="1080" width="60" height="30" as="geometry"/>
                </mxCell>
                <mxCell id="96" value="" style="endArrow=none;html=1;entryX=-0.006;entryY=0.936;entryDx=0;entryDy=0;entryPerimeter=0;fillColor=#f8cecc;strokeColor=#b85450;fontSize=14;fontStyle=1" parent="1" edge="1">
                    <mxGeometry width="50" height="50" relative="1" as="geometry">
                        <mxPoint x="280.96" y="180.24" as="sourcePoint"/>
                        <mxPoint x="399.99999999999994" y="180.00000000000023" as="targetPoint"/>
                    </mxGeometry>
                </mxCell>
                <mxCell id="97" value="" style="endArrow=none;html=1;fillColor=#dae8fc;strokeColor=#6c8ebf;fontSize=14;fontStyle=1" parent="1" edge="1">
                    <mxGeometry width="50" height="50" relative="1" as="geometry">
                        <mxPoint x="-10" y="60" as="sourcePoint"/>
                        <mxPoint x="320" y="60" as="targetPoint"/>
                    </mxGeometry>
                </mxCell>
                <mxCell id="98" value="" style="endArrow=none;html=1;fontSize=14;fontStyle=1" parent="1" edge="1">
                    <mxGeometry width="50" height="50" relative="1" as="geometry">
                        <mxPoint x="-10" y="140" as="sourcePoint"/>
                        <mxPoint x="120" y="140" as="targetPoint"/>
                    </mxGeometry>
                </mxCell>
                <mxCell id="99" value="OP&lt;span style=&quot;background-color: transparent;&quot;&gt;[0]&lt;/span&gt;" style="text;html=1;align=center;verticalAlign=middle;whiteSpace=wrap;rounded=0;fontSize=14;fontStyle=1" parent="1" vertex="1">
                    <mxGeometry x="223.33" y="160" width="60" height="30" as="geometry"/>
                </mxCell>
                <mxCell id="100" value="" style="endArrow=none;html=1;entryX=0;entryY=0.25;entryDx=0;entryDy=0;entryPerimeter=0;fillColor=#f8cecc;strokeColor=#b85450;fontSize=14;fontStyle=1" parent="1" target="35" edge="1">
                    <mxGeometry width="50" height="50" relative="1" as="geometry">
                        <mxPoint x="80" y="100" as="sourcePoint"/>
                        <mxPoint x="139.03999999999996" y="100.00000000000023" as="targetPoint"/>
                    </mxGeometry>
                </mxCell>
                <mxCell id="103" value="&lt;span style=&quot;color: rgb(0, 0, 0);&quot;&gt;4{OP&lt;/span&gt;&lt;span style=&quot;background-color: transparent;&quot;&gt;[0]}&lt;/span&gt;" style="text;html=1;align=center;verticalAlign=middle;whiteSpace=wrap;rounded=0;fontSize=14;fontStyle=1" parent="1" vertex="1">
                    <mxGeometry x="90" y="70" width="60" height="30" as="geometry"/>
                </mxCell>
                <mxCell id="104" value="" style="verticalLabelPosition=bottom;shadow=0;dashed=0;align=center;html=1;verticalAlign=top;shape=mxgraph.electrical.logic_gates.d_type_flip-flop;fillColor=#f5f5f5;strokeColor=#666666;fontColor=#333333;fontSize=14;fontStyle=1" vertex="1" parent="1">
                    <mxGeometry x="920" y="460" width="200" height="160" as="geometry"/>
                </mxCell>
                <mxCell id="107" value="" style="endArrow=none;html=1;entryX=0;entryY=0.25;entryDx=0;entryDy=0;entryPerimeter=0;exitX=0.499;exitY=-0.003;exitDx=0;exitDy=0;exitPerimeter=0;fontSize=14;fontStyle=1" edge="1" parent="1" source="42" target="104">
                    <mxGeometry width="50" height="50" relative="1" as="geometry">
                        <mxPoint x="850" y="500" as="sourcePoint"/>
                        <mxPoint x="900" y="500" as="targetPoint"/>
                    </mxGeometry>
                </mxCell>
                <mxCell id="108" value="" style="endArrow=none;html=1;entryX=0;entryY=0.75;entryDx=0;entryDy=0;entryPerimeter=0;fontSize=14;fontStyle=1" edge="1" parent="1" target="104">
                    <mxGeometry width="50" height="50" relative="1" as="geometry">
                        <mxPoint x="920" y="680" as="sourcePoint"/>
                        <mxPoint x="810" y="590" as="targetPoint"/>
                    </mxGeometry>
                </mxCell>
                <mxCell id="109" value="clk" style="text;html=1;align=center;verticalAlign=middle;whiteSpace=wrap;rounded=0;fontSize=14;fontStyle=1" vertex="1" parent="1">
                    <mxGeometry x="890" y="680" width="60" height="30" as="geometry"/>
                </mxCell>
                <mxCell id="112" value="a" style="text;html=1;align=center;verticalAlign=middle;whiteSpace=wrap;rounded=0;fontSize=14;fontStyle=1" vertex="1" parent="1">
                    <mxGeometry x="-10" y="30" width="60" height="30" as="geometry"/>
                </mxCell>
                <mxCell id="113" value="b" style="text;html=1;align=center;verticalAlign=middle;whiteSpace=wrap;rounded=0;fontSize=14;fontStyle=1" vertex="1" parent="1">
                    <mxGeometry x="-10" y="110" width="60" height="30" as="geometry"/>
                </mxCell>
                <mxCell id="114" value="D Flip Flop&amp;nbsp;" style="text;html=1;align=center;verticalAlign=middle;whiteSpace=wrap;rounded=0;fontSize=14;fontStyle=1" vertex="1" parent="1">
                    <mxGeometry x="985" y="525" width="70" height="30" as="geometry"/>
                </mxCell>
                <mxCell id="115" value="p_result" style="text;html=1;align=center;verticalAlign=middle;whiteSpace=wrap;rounded=0;fontSize=14;fontStyle=1" vertex="1" parent="1">
                    <mxGeometry x="1090" y="470" width="60" height="30" as="geometry"/>
                </mxCell>
                <mxCell id="117" value="result" style="text;html=1;align=center;verticalAlign=middle;whiteSpace=wrap;rounded=0;fontSize=14;fontStyle=1" vertex="1" parent="1">
                    <mxGeometry x="1230" y="450" width="60" height="30" as="geometry"/>
                </mxCell>
                <mxCell id="118" value="" style="endArrow=none;html=1;entryX=0;entryY=0.5;entryDx=0;entryDy=0;fontSize=14;fontStyle=1" edge="1" parent="1">
                    <mxGeometry width="50" height="50" relative="1" as="geometry">
                        <mxPoint x="-240" y="540" as="sourcePoint"/>
                        <mxPoint x="-80" y="540" as="targetPoint"/>
                    </mxGeometry>
                </mxCell>
                <mxCell id="119" value="" style="endArrow=none;html=1;entryX=0;entryY=0.5;entryDx=0;entryDy=0;fontSize=14;fontStyle=1" edge="1" parent="1">
                    <mxGeometry width="50" height="50" relative="1" as="geometry">
                        <mxPoint x="-240" y="620" as="sourcePoint"/>
                        <mxPoint x="-80" y="620" as="targetPoint"/>
                    </mxGeometry>
                </mxCell>
                <mxCell id="120" value="" style="endArrow=none;html=1;entryX=0;entryY=0.5;entryDx=0;entryDy=0;fontSize=14;fontStyle=1" edge="1" parent="1">
                    <mxGeometry width="50" height="50" relative="1" as="geometry">
                        <mxPoint x="-240" y="460" as="sourcePoint"/>
                        <mxPoint x="-80" y="460" as="targetPoint"/>
                    </mxGeometry>
                </mxCell>
                <mxCell id="121" value="" style="endArrow=none;html=1;entryX=0;entryY=0.5;entryDx=0;entryDy=0;fontSize=14;fontStyle=1" edge="1" parent="1">
                    <mxGeometry width="50" height="50" relative="1" as="geometry">
                        <mxPoint x="-240" y="700" as="sourcePoint"/>
                        <mxPoint x="-80" y="700" as="targetPoint"/>
                    </mxGeometry>
                </mxCell>
                <mxCell id="122" value="" style="endArrow=none;html=1;entryX=0;entryY=0.5;entryDx=0;entryDy=0;fontSize=14;fontStyle=1" edge="1" parent="1">
                    <mxGeometry width="50" height="50" relative="1" as="geometry">
                        <mxPoint x="-240" y="380" as="sourcePoint"/>
                        <mxPoint x="-80" y="380" as="targetPoint"/>
                    </mxGeometry>
                </mxCell>
                <mxCell id="123" value="clk" style="text;html=1;align=center;verticalAlign=middle;whiteSpace=wrap;rounded=0;fontSize=14;fontStyle=1" vertex="1" parent="1">
                    <mxGeometry x="-190" y="350" width="60" height="30" as="geometry"/>
                </mxCell>
                <mxCell id="124" value="rst_n" style="text;html=1;align=center;verticalAlign=middle;whiteSpace=wrap;rounded=0;fontSize=14;fontStyle=1" vertex="1" parent="1">
                    <mxGeometry x="-190" y="430" width="60" height="30" as="geometry"/>
                </mxCell>
                <mxCell id="125" value="a" style="text;html=1;align=center;verticalAlign=middle;whiteSpace=wrap;rounded=0;fontSize=14;fontStyle=1" vertex="1" parent="1">
                    <mxGeometry x="-190" y="510" width="60" height="30" as="geometry"/>
                </mxCell>
                <mxCell id="126" value="b" style="text;html=1;align=center;verticalAlign=middle;whiteSpace=wrap;rounded=0;fontSize=14;fontStyle=1" vertex="1" parent="1">
                    <mxGeometry x="-190" y="590" width="60" height="30" as="geometry"/>
                </mxCell>
                <mxCell id="127" value="op" style="text;html=1;align=center;verticalAlign=middle;whiteSpace=wrap;rounded=0;fontSize=14;fontStyle=1" vertex="1" parent="1">
                    <mxGeometry x="-190" y="670" width="60" height="30" as="geometry"/>
                </mxCell>
                <mxCell id="128" value="" style="endArrow=none;html=1;exitX=1;exitY=0.75;exitDx=0;exitDy=0;fontSize=14;fontStyle=1" edge="1" parent="1" source="2">
                    <mxGeometry width="50" height="50" relative="1" as="geometry">
                        <mxPoint x="650" y="180" as="sourcePoint"/>
                        <mxPoint x="620" y="160" as="targetPoint"/>
                    </mxGeometry>
                </mxCell>
                <mxCell id="130" value="Cout" style="text;html=1;align=center;verticalAlign=middle;whiteSpace=wrap;rounded=0;fontSize=14;fontStyle=1" vertex="1" parent="1">
                    <mxGeometry x="560" y="130" width="60" height="30" as="geometry"/>
                </mxCell>
                <mxCell id="132" value="" style="verticalLabelPosition=bottom;shadow=0;dashed=0;align=center;html=1;verticalAlign=top;shape=mxgraph.electrical.logic_gates.logic_gate;operation=or;fillColor=#f5f5f5;strokeColor=#666666;fontSize=14;fontStyle=1;fontColor=#333333;" vertex="1" parent="1">
                    <mxGeometry x="880.0000000000001" y="280" width="133.33" height="80" as="geometry"/>
                </mxCell>
                <mxCell id="133" value="" style="shape=trapezoid;perimeter=trapezoidPerimeter;whiteSpace=wrap;html=1;fixedSize=1;rotation=90;fontSize=14;fontStyle=1" vertex="1" parent="1">
                    <mxGeometry x="990" y="190" width="120" height="60" as="geometry"/>
                </mxCell>
                <mxCell id="134" value="" style="endArrow=none;html=1;exitX=1;exitY=0.5;exitDx=0;exitDy=0;exitPerimeter=0;entryX=1;entryY=0.5;entryDx=0;entryDy=0;rounded=0;curved=0;fontSize=14;fontStyle=1" edge="1" parent="1" source="132" target="133">
                    <mxGeometry width="50" height="50" relative="1" as="geometry">
                        <mxPoint x="1020" y="290" as="sourcePoint"/>
                        <mxPoint x="1070" y="240" as="targetPoint"/>
                        <Array as="points">
                            <mxPoint x="1050" y="320"/>
                        </Array>
                    </mxGeometry>
                </mxCell>
                <mxCell id="139" value="" style="endArrow=none;html=1;exitX=1;exitY=0.25;exitDx=0;exitDy=0;exitPerimeter=0;fontSize=14;fontStyle=1" edge="1" parent="1" source="104">
                    <mxGeometry width="50" height="50" relative="1" as="geometry">
                        <mxPoint x="1050" y="510" as="sourcePoint"/>
                        <mxPoint x="1160" y="500" as="targetPoint"/>
                    </mxGeometry>
                </mxCell>
                <mxCell id="140" value="" style="endArrow=none;html=1;exitX=1;exitY=0.25;exitDx=0;exitDy=0;exitPerimeter=0;fontSize=14;fontStyle=1" edge="1" parent="1">
                    <mxGeometry width="50" height="50" relative="1" as="geometry">
                        <mxPoint x="1080" y="219.6" as="sourcePoint"/>
                        <mxPoint x="1160" y="219.6" as="targetPoint"/>
                    </mxGeometry>
                </mxCell>
                <mxCell id="141" value="carry" style="text;html=1;align=center;verticalAlign=middle;whiteSpace=wrap;rounded=0;fontSize=14;fontStyle=1" vertex="1" parent="1">
                    <mxGeometry x="1090" y="190" width="60" height="30" as="geometry"/>
                </mxCell>
                <mxCell id="142" value="MUX 4 to 1" style="text;html=1;align=center;verticalAlign=middle;whiteSpace=wrap;rounded=0;fontSize=14;fontStyle=1" vertex="1" parent="1">
                    <mxGeometry x="1030" y="195" width="40" height="50" as="geometry"/>
                </mxCell>
                <mxCell id="143" value="" style="endArrow=none;html=1;exitX=0.75;exitY=1;exitDx=0;exitDy=0;fontSize=14;fontStyle=1" edge="1" parent="1" source="133">
                    <mxGeometry width="50" height="50" relative="1" as="geometry">
                        <mxPoint x="1040" y="230" as="sourcePoint"/>
                        <mxPoint x="960" y="250" as="targetPoint"/>
                    </mxGeometry>
                </mxCell>
                <mxCell id="144" value="" style="endArrow=none;html=1;exitX=0.25;exitY=1;exitDx=0;exitDy=0;fontSize=14;fontStyle=1" edge="1" parent="1" source="133">
                    <mxGeometry width="50" height="50" relative="1" as="geometry">
                        <mxPoint x="1010" y="180" as="sourcePoint"/>
                        <mxPoint x="960" y="190" as="targetPoint"/>
                    </mxGeometry>
                </mxCell>
                <mxCell id="145" value="0" style="text;html=1;align=center;verticalAlign=middle;whiteSpace=wrap;rounded=0;fontSize=14;fontStyle=1" vertex="1" parent="1">
                    <mxGeometry x="995" y="170" width="60" height="30" as="geometry"/>
                </mxCell>
                <mxCell id="147" value="1" style="text;html=1;align=center;verticalAlign=middle;whiteSpace=wrap;rounded=0;fontSize=14;fontStyle=1" vertex="1" parent="1">
                    <mxGeometry x="995" y="230" width="60" height="30" as="geometry"/>
                </mxCell>
                <mxCell id="148" value="Cout" style="text;html=1;align=center;verticalAlign=middle;whiteSpace=wrap;rounded=0;fontSize=14;fontStyle=1" vertex="1" parent="1">
                    <mxGeometry x="910" y="170" width="60" height="30" as="geometry"/>
                </mxCell>
                <mxCell id="149" value="0" style="text;html=1;align=center;verticalAlign=middle;whiteSpace=wrap;rounded=0;fontSize=14;fontStyle=1" vertex="1" parent="1">
                    <mxGeometry x="916.66" y="230" width="60" height="30" as="geometry"/>
                </mxCell>
                <mxCell id="150" value="" style="endArrow=none;html=1;exitX=1;exitY=0.5;exitDx=0;exitDy=0;fontSize=14;fontStyle=1" edge="1" parent="1">
                    <mxGeometry width="50" height="50" relative="1" as="geometry">
                        <mxPoint x="1200" y="600" as="sourcePoint"/>
                        <mxPoint x="1320" y="600" as="targetPoint"/>
                    </mxGeometry>
                </mxCell>
                <mxCell id="151" value="" style="endArrow=none;html=1;exitX=1;exitY=0.5;exitDx=0;exitDy=0;fontSize=14;fontStyle=1" edge="1" parent="1">
                    <mxGeometry width="50" height="50" relative="1" as="geometry">
                        <mxPoint x="1200" y="480" as="sourcePoint"/>
                        <mxPoint x="1320" y="480" as="targetPoint"/>
                    </mxGeometry>
                </mxCell>
                <mxCell id="152" value="carry" style="text;html=1;align=center;verticalAlign=middle;whiteSpace=wrap;rounded=0;fontSize=14;fontStyle=1" vertex="1" parent="1">
                    <mxGeometry x="1230" y="570" width="60" height="30" as="geometry"/>
                </mxCell>
                <mxCell id="153" value="OP&lt;span style=&quot;background-color: transparent;&quot;&gt;[2]&lt;/span&gt;" style="text;html=1;align=center;verticalAlign=middle;whiteSpace=wrap;rounded=0;fontSize=14;fontStyle=1" vertex="1" parent="1">
                    <mxGeometry x="840" y="275" width="60" height="30" as="geometry"/>
                </mxCell>
                <mxCell id="154" value="OP&lt;span style=&quot;background-color: transparent;&quot;&gt;[1]&lt;/span&gt;" style="text;html=1;align=center;verticalAlign=middle;whiteSpace=wrap;rounded=0;fontSize=14;fontStyle=1" vertex="1" parent="1">
                    <mxGeometry x="840" y="335" width="60" height="30" as="geometry"/>
                </mxCell>
            </root>
        </mxGraphModel>
    </diagram>
</mxfile>